<?xml version="1.0" standalone="no"?>
<!DOCTYPE svg PUBLIC "-//W3C//DTD SVG 20010904//EN"
 "http://www.w3.org/TR/2001/REC-SVG-20010904/DTD/svg10.dtd">
<svg version="1.0" xmlns="http://www.w3.org/2000/svg"
 width="700.000000pt" height="700.000000pt" viewBox="0 0 700.000000 700.000000"
 preserveAspectRatio="xMidYMid meet">
<metadata>
Created by potrace 1.11, written by Peter Selinger 2001-2013
</metadata>
<g transform="translate(0.000000,700.000000) scale(0.100000,-0.100000)"
fill="#000000" stroke="none">
<path d="M2328 5830 c-14 -4 -145 -108 -290 -230 -277 -235 -364 -309 -382
-325 -6 -5 -51 -44 -101 -85 -49 -41 -92 -77 -95 -80 -3 -3 -90 -77 -195 -165
-104 -87 -197 -166 -206 -174 -9 -9 -36 -32 -59 -50 -23 -19 -48 -40 -54 -45
-6 -6 -51 -45 -101 -86 -49 -41 -103 -86 -120 -100 -16 -14 -47 -42 -67 -64
-33 -34 -37 -44 -34 -81 2 -23 9 -51 17 -62 11 -17 137 -157 199 -223 8 -9 53
-58 100 -110 47 -52 96 -107 110 -121 14 -14 38 -42 54 -60 24 -27 103 -115
221 -244 6 -7 44 -49 85 -95 41 -45 86 -95 100 -110 67 -73 191 -209 221 -244
19 -22 45 -51 59 -65 14 -15 49 -53 79 -86 29 -33 91 -100 136 -150 45 -49
130 -144 190 -210 59 -66 143 -158 186 -205 43 -47 87 -97 99 -110 19 -22 104
-116 190 -210 14 -15 43 -47 64 -71 22 -24 62 -69 90 -100 28 -30 69 -75 92
-100 22 -24 65 -71 95 -104 71 -79 207 -230 239 -265 14 -15 58 -64 99 -109
75 -83 95 -99 134 -107 21 -4 77 13 87 27 3 4 69 74 146 155 78 82 157 165
175 185 19 20 95 101 170 180 75 79 151 160 169 179 18 19 92 98 165 175 73
77 152 160 175 185 23 25 106 112 184 194 77 82 152 160 165 175 22 24 217
231 330 349 143 151 323 342 351 372 18 19 96 103 175 185 159 168 272 288
335 355 197 210 288 306 303 319 34 29 77 99 77 126 0 56 -4 60 -255 271 -215
180 -228 191 -259 219 -13 11 -45 38 -71 60 -27 22 -110 92 -185 155 -74 64
-191 163 -260 220 -68 58 -135 114 -148 125 -13 11 -34 29 -46 40 -12 11 -44
38 -71 60 -46 39 -108 90 -284 240 -135 115 17 103 -1355 103 -661 0 -1213 -4
-1228 -8z m2238 -227 c-3 -10 -32 -117 -65 -238 -33 -121 -101 -368 -151 -549
-49 -181 -90 -330 -90 -330 0 -4 -1439 0 -1442 4 -2 3 -27 100 -56 215 -28
116 -83 338 -122 495 -40 157 -73 292 -75 300 -2 8 -8 35 -14 60 -6 25 -11 48
-11 53 0 4 457 7 1016 7 962 0 1015 -1 1010 -17z m278 -98 c6 -6 83 -71 171
-145 88 -74 162 -137 165 -140 6 -6 175 -147 203 -170 11 -8 27 -22 36 -31 9
-8 86 -74 171 -145 85 -71 157 -131 160 -134 3 -3 34 -30 70 -60 35 -30 70
-59 76 -65 6 -5 33 -28 60 -50 26 -22 59 -49 72 -60 l23 -20 -780 0 c-430 0
-781 1 -781 3 0 9 44 175 61 231 10 35 22 77 25 94 2 17 6 33 8 36 2 3 45 157
95 341 51 184 94 343 97 352 5 17 13 13 68 -37z m-2389 -472 c70 -284 130
-524 132 -532 4 -15 -68 -16 -761 -16 -570 0 -762 3 -753 11 10 9 333 283 601
508 27 23 54 46 60 51 6 6 67 58 136 115 69 58 136 114 150 126 213 184 296
253 301 254 3 0 64 -233 134 -517z m228 -918 c21 -82 40 -159 42 -170 3 -11
46 -184 96 -385 50 -201 92 -373 94 -383 2 -10 7 -27 10 -37 3 -10 7 -27 9
-37 2 -10 79 -320 170 -688 91 -369 168 -681 171 -695 5 -22 2 -21 -32 15 -47
50 -195 212 -220 241 -10 12 -56 63 -103 114 -47 51 -89 98 -95 104 -5 6 -48
54 -95 106 -47 52 -89 100 -95 106 -5 6 -48 53 -95 104 -47 51 -92 101 -100
110 -8 9 -51 57 -96 106 -45 49 -195 215 -334 369 -139 154 -276 305 -304 336
-28 30 -85 93 -126 139 -41 46 -88 98 -105 116 -16 17 -47 51 -69 75 -21 24
-59 67 -85 94 -25 28 -84 93 -131 145 -47 52 -108 120 -136 150 -29 30 -63 69
-77 85 l-25 30 847 0 846 0 38 -150z m1509 130 c-4 -22 -133 -493 -156 -567
-8 -27 -12 -48 -10 -48 2 0 -1 -12 -7 -27 -6 -16 -58 -201 -116 -413 -58 -212
-121 -441 -140 -510 -19 -69 -41 -150 -49 -180 -33 -123 -197 -717 -204 -740
-6 -18 -9 -21 -14 -10 -5 13 -211 842 -221 889 -2 9 -44 180 -94 381 -50 201
-93 374 -96 385 -7 34 -194 788 -204 822 -5 18 -7 33 -6 35 2 2 300 3 662 3
651 0 658 -1 655 -20z m1958 18 c0 -1 -10 -13 -22 -25 -41 -42 -305 -322 -333
-353 -15 -16 -64 -68 -109 -115 -81 -85 -369 -389 -416 -440 -38 -41 -291
-308 -330 -350 -188 -198 -315 -332 -337 -356 -14 -16 -92 -99 -173 -184 -81
-85 -164 -173 -185 -195 -20 -22 -71 -76 -113 -120 -41 -44 -114 -121 -161
-171 -218 -230 -251 -264 -251 -262 1 6 45 169 185 678 81 294 158 573 171
620 12 47 84 308 159 580 75 272 146 529 156 570 11 41 24 86 30 100 l9 25
860 0 c473 0 860 -1 860 -2z"/>
</g>
</svg>
